<?xml version="1.0" encoding="UTF-8"?>
<svg width="1920px" height="1080px" viewBox="0 0 1920 1080" version="1.1" xmlns="http://www.w3.org/2000/svg" xmlns:xlink="http://www.w3.org/1999/xlink" style="background: #2F2F2F;">
    <!-- Generator: Sketch 43.2 (39069) - http://www.bohemiancoding.com/sketch -->
    <title>Artboard</title>
    <desc>Created with Sketch.</desc>
    <defs></defs>
    <g id="Page-1" stroke="none" stroke-width="1" fill="none" fill-rule="evenodd">
        <g id="Artboard" stroke="#525252">
            <circle id="Oval" stroke-width="6" cx="547.5" cy="187.5" r="33.5"></circle>
            <circle id="Oval" stroke-width="9" cx="452" cy="276" r="55.5"></circle>
            <circle id="Oval" stroke-width="9" cx="711" cy="241" r="102.5"></circle>
            <circle id="Oval" stroke-width="9" cx="240" cy="1134" r="102.5"></circle>
            <circle id="Oval" stroke-width="20" cx="7.5" cy="1072.5" r="135.5"></circle>
            <circle id="Oval" stroke-width="9" cx="629" cy="42" r="60.5"></circle>
            <circle id="Oval" stroke-width="2" cx="808.5" cy="-0.5" r="154.5"></circle>
            <circle id="Oval" stroke-width="2" cx="747" cy="247" r="35"></circle>
            <circle id="Oval" stroke-width="4" cx="1443" cy="257" r="34"></circle>
            <circle id="Oval" stroke-width="4" cx="1463" cy="13" r="34"></circle>
            <circle id="Oval" stroke-width="2" cx="1489.5" cy="55.5" r="14.5"></circle>
            <circle id="Oval" stroke-width="2" cx="952.5" cy="129.5" r="14.5"></circle>
            <circle id="Oval" stroke-width="2" cx="905" cy="224" r="65"></circle>
            <circle id="Oval" stroke-width="2" cx="206.5" cy="946.5" r="59.5"></circle>
            <circle id="Oval" stroke-width="5" cx="647.5" cy="955.5" r="61"></circle>
            <circle id="Oval" stroke-width="3" cx="542.5" cy="1006.5" r="37"></circle>
            <circle id="Oval" stroke-width="2" cx="1293" cy="266" r="65"></circle>
            <circle id="Oval" stroke-width="6" cx="1085.5" cy="-12.5" r="80.5"></circle>
            <circle id="Oval" stroke-width="6" cx="1361.5" cy="129.5" r="80.5"></circle>
            <circle id="Oval" stroke-width="2" cx="511" cy="42" r="15"></circle>
        </g>
    </g>
</svg>