<?xml version="1.0" encoding="iso-8859-1"?>
<!-- Generator: Adobe Illustrator 19.0.0, SVG Export Plug-In . SVG Version: 6.00 Build 0)  -->
<svg xmlns="http://www.w3.org/2000/svg" xmlns:xlink="http://www.w3.org/1999/xlink" version="1.1" id="Layer_1" x="0px" y="0px" viewBox="0 0 512.001 512.001" style="enable-background:new 0 0 512.001 512.001;" xml:space="preserve" width="512px" height="512px">
<g>
	<g>
		<path d="M510.573,249.253c-2.674-6.044-8.663-9.946-15.272-9.946H395.129V128.005c0-4.707-1.989-9.185-5.467-12.359L267.229,4.343    c-4.892-4.445-11.956-5.587-17.978-2.913c-6.044,2.674-9.946,8.663-9.946,15.272v100.172H128.003    c-4.707,0-9.185,1.989-12.359,5.467L4.341,244.774c-4.445,4.892-5.587,11.935-2.913,17.978c2.675,6.043,8.663,9.946,15.272,9.946    h100.172V384c0,4.707,1.989,9.185,5.467,12.359l122.433,111.302c4.902,4.46,11.971,5.57,17.978,2.913    c6.044-2.674,9.946-8.663,9.946-15.272V395.131h111.302c4.707,0,9.185-1.989,12.359-5.467L507.66,267.231    C512.105,262.34,513.246,255.297,510.573,249.253z M54.439,239.307l74.139-81.555l81.555,81.555    C207.276,239.307,57.045,239.307,54.439,239.307z M239.305,457.566l-81.555-74.137l81.555-81.555    C239.305,304.728,239.305,454.959,239.305,457.566z M256.001,265.786l-9.782-9.782l9.782-9.782l9.782,9.782L256.001,265.786z     M272.696,54.442l81.555,74.137l-81.555,81.555C272.696,207.278,272.696,57.047,272.696,54.442z M383.424,354.254l-81.555-81.555    c2.856,0,153.086,0,155.693,0L383.424,354.254z" fill="#FFFFFF"/>
	</g>
</g>
<g>
</g>
<g>
</g>
<g>
</g>
<g>
</g>
<g>
</g>
<g>
</g>
<g>
</g>
<g>
</g>
<g>
</g>
<g>
</g>
<g>
</g>
<g>
</g>
<g>
</g>
<g>
</g>
<g>
</g>
</svg>
