<?xml version="1.0" encoding="iso-8859-1"?>
<!-- Generator: Adobe Illustrator 16.0.3, SVG Export Plug-In . SVG Version: 6.00 Build 0)  -->
<!DOCTYPE svg PUBLIC "-//W3C//DTD SVG 1.1//EN" "http://www.w3.org/Graphics/SVG/1.1/DTD/svg11.dtd">
<svg version="1.1" id="&#x5716;&#x5C64;_1" xmlns="http://www.w3.org/2000/svg" xmlns:xlink="http://www.w3.org/1999/xlink" x="0px"
	 y="0px" width="180px" height="180px" viewBox="0 0 180 180" style="enable-background:new 0 0 180 180;" xml:space="preserve">
<g>
	<path style="fill:#EE7E00;" d="M180,137.813C180,161.112,161.112,180,137.813,180H42.188C18.888,180,0,161.112,0,137.813V42.188
		C0,18.888,18.888,0,42.188,0h95.625C161.112,0,180,18.888,180,42.188V137.813z"/>
	<path style="fill:#FFFFFF;" d="M92.407,88.89l10.775-10.778c0.816-2.907,1.281-5.954,1.281-9.121h-11.93
		c0,12.08-9.798,21.893-21.898,21.893c-12.106,0-21.893-9.813-21.893-21.893c0-12.089,9.787-21.898,21.893-21.898
		c11.334,0,20.652,8.612,21.783,19.643C91.272,52.411,79.3,41.129,64.659,41.129c-15.402,0-27.864,12.479-27.864,27.862
		c0,18.677,15.142,33.84,33.84,33.84c11.242,0,21.169-5.506,27.322-13.941H92.407z"/>
	<path style="fill:#FFFFFF;" d="M92.534,68.986v0.004h11.932v-0.004c0-18.689-15.14-33.83-33.828-33.83
		c-12.215,0-22.875,6.482-28.826,16.164V35.156H29.87L17.93,47.092h11.94v55.732h11.942V86.649
		c-3.16-5.145-5.017-11.181-5.017-17.659c0-7.038,2.627-13.447,6.934-18.357c0.104-0.115,0.215-0.235,0.326-0.352
		c0.6-0.666,1.229-1.295,1.888-1.893c0.139-0.12,0.268-0.246,0.404-0.366c0.727-0.636,1.479-1.234,2.268-1.791
		c0.066-0.047,0.124-0.094,0.187-0.141c0.881-0.612,1.799-1.175,2.754-1.689c0.036-0.014,0.079-0.035,0.115-0.057
		c0.858-0.446,1.746-0.852,2.654-1.212c0.272-0.11,0.548-0.209,0.823-0.31c0.698-0.251,1.403-0.477,2.127-0.676
		c0.335-0.089,0.668-0.178,1.012-0.258c0.721-0.167,1.455-0.303,2.195-0.413c0.317-0.054,0.632-0.11,0.955-0.152
		c1.06-0.115,2.129-0.195,3.223-0.195c1.621,0,3.202,0.157,4.744,0.425c0.202,0.037,0.409,0.047,0.605,0.084
		c0.266,0.059,0.522,0.136,0.788,0.19c2.305,0.518,4.513,1.305,6.561,2.353c0.008,0.007,0.016,0.007,0.023,0.012
		c0.752,0.387,1.487,0.807,2.198,1.265c0.063,0.035,0.118,0.082,0.181,0.125c0.65,0.42,1.29,0.865,1.901,1.337
		c0.058,0.042,0.105,0.089,0.158,0.131c0.616,0.483,1.211,0.98,1.785,1.516c0.05,0.042,0.093,0.096,0.142,0.136
		c0.569,0.542,1.12,1.091,1.639,1.668c0.061,0.075,0.11,0.143,0.168,0.211c0.503,0.572,0.986,1.147,1.442,1.762
		c0.194,0.263,0.362,0.546,0.551,0.807c0.296,0.432,0.605,0.85,0.881,1.302c0.278,0.455,0.522,0.943,0.782,1.422
		c0.144,0.272,0.309,0.539,0.448,0.823c0.263,0.528,0.485,1.079,0.711,1.63c0.104,0.242,0.226,0.477,0.32,0.729
		c0.296,0.781,0.558,1.572,0.784,2.391c0.008,0.021,0.02,0.047,0.023,0.073c0.467,1.685,0.781,3.433,0.928,5.225
		C92.497,67.484,92.534,68.23,92.534,68.986"/>
	<path style="fill:#FFFFFF;" d="M148.139,78.936v-43.78h-1.984L92.407,88.89h43.807v13.939h11.926V88.89h13.932v-9.954H148.139z
		 M136.213,78.936h-19.914l19.914-19.885V78.936z"/>
	<g style="opacity:0.3;">
		<g>
			<defs>
				<rect id="SVGID_1_" x="36.795" y="41.129" width="67.668" height="61.7"/>
			</defs>
			<clipPath id="SVGID_2_">
				<use xlink:href="#SVGID_1_"  style="overflow:visible;"/>
			</clipPath>
			<path style="clip-path:url(#SVGID_2_);fill:#EE7E00;" d="M92.407,88.89l10.775-10.778c0.816-2.907,1.281-5.954,1.281-9.121
				h-11.93c0,12.08-9.798,21.893-21.898,21.893c-12.106,0-21.893-9.813-21.893-21.893c0-12.089,9.787-21.898,21.893-21.898
				c11.334,0,20.652,8.612,21.783,19.643C91.272,52.411,79.3,41.129,64.659,41.129c-15.402,0-27.864,12.479-27.864,27.862
				c0,18.677,15.142,33.84,33.84,33.84c11.242,0,21.169-5.506,27.322-13.941H92.407z"/>
		</g>
	</g>
	<polygon style="fill:#FFFFFF;" points="31.242,119.524 19.277,119.524 19.277,116.643 46.025,116.643 46.025,119.524 
		34.25,119.524 34.25,140.446 47.417,140.446 47.417,143.327 17.884,143.327 17.884,140.446 31.242,140.446 	"/>
	<path style="fill:#FFFFFF;" d="M58.475,130.348l-2.723-1.17c3.166-4.389,5.107-9.148,5.825-14.277l2.849,0.508
		c-0.57,2.764-1.214,5.17-1.931,7.217v22.285h-2.754V128.45C59.298,129.125,58.876,129.758,58.475,130.348 M75.41,144.784h-2.753
		v-24.564h-2.944c-0.76,3.82-1.804,6.9-3.134,9.244l-2.849-0.824c2.343-4.305,3.577-8.83,3.704-13.58l2.88,0.158
		c-0.063,0.781-0.137,1.531-0.221,2.248h15.7v2.754H75.41v6.363h9.497v2.754H75.41v6.109h9.876v2.754H75.41V144.784z"/>
	<path style="fill:#FFFFFF;" d="M97.262,120.567c-0.043,4.729-0.295,8.896-0.76,12.504l-2.438-0.348
		c0.611-4.559,0.855-8.674,0.729-12.346L97.262,120.567z M101.124,144.911H98.37V114.87h2.754V144.911z M105.366,127.215
		l-2.469,0.348l-0.855-6.553l2.471-0.506L105.366,127.215z M104.575,144.911l-2.152-2.059c4.432-2.426,7.186-6.299,8.262-11.617
		h-7.186v-2.754h7.533c0.064-0.654,0.105-1.34,0.127-2.059v-5.189h-5.477v-2.754h5.477v-3.482h2.754v3.482h7.406
		c0.465,0,0.697,0.221,0.697,0.664v9.338h2.279v2.754h-9.877l0.033,0.031c1.266,4.559,4.494,8.516,9.686,11.871l-2.311,1.867
		c-0.189-0.146-0.348-0.264-0.475-0.348c-4.475-3.461-7.375-6.912-8.705-10.352C111.19,138.758,108.5,142.293,104.575,144.911
		 M113.881,127.088c0.021,0.486,0.063,0.949,0.127,1.393h5.254v-6.932c-0.021-0.211-0.137-0.316-0.348-0.316h-5.002v5.189
		c0,0.043-0.01,0.074-0.031,0.096C113.86,126.709,113.86,126.899,113.881,127.088"/>
	<path style="fill:#FFFFFF;" d="M136.747,123.891h-3.863v-2.754h3.863v-5.887h2.752v5.887h3.166v2.754h-3.166v5.697
		c0.887-0.59,1.625-1.148,2.217-1.676L143.52,130c-1.014,0.824-2.184,1.625-3.514,2.406c-0.189,0.084-0.359,0.189-0.508,0.316v8.895
		c-0.02,1.223-0.506,2.152-1.455,2.787c-0.887,0.59-2.691,0.473-5.412-0.35l0.125-2.848c1.414,0.506,2.406,0.791,2.977,0.854
		c0.273,0.043,0.518-0.043,0.729-0.254c0.189-0.168,0.285-0.475,0.285-0.916v-6.586c-0.908,0.508-1.838,0.992-2.787,1.457
		l-1.646-2.248c1.752-0.822,3.23-1.561,4.434-2.215V123.891z M148.901,124.272h-4.621v-2.754h4.367
		c-0.189-2.027-0.295-4.158-0.316-6.395l2.754,0.189c0,2.152,0.064,4.221,0.189,6.205h10.383v2.754h-10.098
		c0.275,2.975,0.803,5.791,1.584,8.451c0.949-1.16,2.246-3.387,3.893-6.68l2.502,1.172c-1.605,3.482-3.389,6.311-5.35,8.482
		c0.674,1.563,1.465,2.924,2.373,4.084c0.781,1.055,1.309,1.582,1.582,1.582c0.232,0,0.391-0.168,0.477-0.506
		c0.273-0.992,0.516-2.701,0.727-5.127l2.691,0.854c-0.275,4.115-0.949,6.689-2.025,7.725c-0.402,0.379-0.824,0.58-1.268,0.602
		c-0.865,0-1.74-0.486-2.627-1.457c-1.246-1.266-2.48-3.133-3.703-5.604c-0.084-0.105-0.137-0.199-0.158-0.283
		c-2.449,2.109-5.604,4.029-9.465,5.76l-1.836-2.436c4.475-1.943,7.881-3.957,10.225-6.047
		C150.104,131.911,149.344,128.387,148.901,124.272 M154.44,114.87c2.363,1.393,4.18,2.596,5.445,3.609l-1.709,2.121
		c-1.816-1.477-3.588-2.639-5.318-3.482L154.44,114.87z"/>
</g>
<g>
</g>
<g>
</g>
<g>
</g>
<g>
</g>
<g>
</g>
<g>
</g>
</svg>
